<svg xmlns="http://www.w3.org/2000/svg" width="512" height="512" viewBox="0 0 512 512">
  <defs>
    <radialGradient id="bg" cx="50%" cy="38%" r="72%">
      <stop offset="0%" stop-color="#2f7fa8"/>
      <stop offset="100%" stop-color="#0d2f4d"/>
    </radialGradient>
    <radialGradient id="glow" cx="50%" cy="50%" r="50%">
      <stop offset="0%" stop-color="#9beeff" stop-opacity=".5"/>
      <stop offset="100%" stop-color="#9beeff" stop-opacity="0"/>
    </radialGradient>
    <g id="gem">
      <path d="M -30,-50 L 30,-50 L 50,-15 L -50,-15 Z" fill="#9beeff"/>
      <path d="M -50,-15 L 0,-15 L 0,50 Z" fill="#63e6ff"/>
      <path d="M 50,-15 L 0,-15 L 0,50 Z" fill="#36bdec"/>
      <path d="M -50,-15 L 50,-15" stroke="#1683bd" stroke-width="4"/>
      <path d="M -30,-50 L -50,-15 M 30,-50 L 50,-15 M 0,-15 L 0,50" stroke="#1683bd" stroke-width="3" opacity=".45"/>
      <path d="M -30,-50 L 30,-50 L 50,-15 L 0,50 L -50,-15 Z" fill="none" stroke="#12628f" stroke-width="7" stroke-linejoin="round"/>
      <path d="M -20,-43 L -7,-43 L -13,-23 L -25,-23 Z" fill="#ffffff" opacity=".5"/>
    </g>
  </defs>

  <rect width="512" height="512" rx="76" fill="url(#bg)"/>
  <circle cx="256" cy="248" r="196" fill="url(#glow)"/>

  <g transform="translate(120,318) scale(0.5)"><use href="#gem"/></g>
  <g transform="translate(392,318) scale(0.5)"><use href="#gem"/></g>
  <g transform="translate(180,196) scale(0.55)"><use href="#gem"/></g>
  <g transform="translate(332,196) scale(0.55)"><use href="#gem"/></g>
  <g transform="translate(178,308) scale(0.78)"><use href="#gem"/></g>
  <g transform="translate(334,308) scale(0.78)"><use href="#gem"/></g>
  <g transform="translate(256,232) scale(1.12)"><use href="#gem"/></g>

  <text x="256" y="462" text-anchor="middle" font-family="Arial Black, Arial, sans-serif" font-weight="900" font-size="86" fill="#ffffff" stroke="#0b2c47" stroke-width="10" paint-order="stroke">500</text>
</svg>
