<svg xmlns="http://www.w3.org/2000/svg" width="512" height="512" viewBox="0 0 512 512">
  <defs>
    <radialGradient id="bg" cx="50%" cy="38%" r="72%">
      <stop offset="0%" stop-color="#3d86bb"/>
      <stop offset="100%" stop-color="#123a58"/>
    </radialGradient>
    <radialGradient id="glow" cx="50%" cy="50%" r="50%">
      <stop offset="0%" stop-color="#9beeff" stop-opacity=".45"/>
      <stop offset="100%" stop-color="#9beeff" stop-opacity="0"/>
    </radialGradient>
    <g id="gem">
      <path d="M -30,-50 L 30,-50 L 50,-15 L -50,-15 Z" fill="#9beeff"/>
      <path d="M -50,-15 L 0,-15 L 0,50 Z" fill="#63e6ff"/>
      <path d="M 50,-15 L 0,-15 L 0,50 Z" fill="#36bdec"/>
      <path d="M -50,-15 L 50,-15" stroke="#1683bd" stroke-width="4"/>
      <path d="M -30,-50 L -50,-15 M 30,-50 L 50,-15 M 0,-15 L 0,50" stroke="#1683bd" stroke-width="3" opacity=".45"/>
      <path d="M -30,-50 L 30,-50 L 50,-15 L 0,50 L -50,-15 Z" fill="none" stroke="#12628f" stroke-width="7" stroke-linejoin="round"/>
      <path d="M -20,-43 L -7,-43 L -13,-23 L -25,-23 Z" fill="#ffffff" opacity=".5"/>
    </g>
  </defs>

  <rect width="512" height="512" rx="76" fill="url(#bg)"/>
  <circle cx="256" cy="252" r="180" fill="url(#glow)"/>

  <g transform="translate(168,300) scale(0.62)"><use href="#gem"/></g>
  <g transform="translate(348,300) scale(0.62)"><use href="#gem"/></g>
  <g transform="translate(256,242) scale(1.05)"><use href="#gem"/></g>

  <text x="256" y="452" text-anchor="middle" font-family="Arial Black, Arial, sans-serif" font-weight="900" font-size="86" fill="#ffffff" stroke="#0e3d5c" stroke-width="10" paint-order="stroke">100</text>
</svg>
